<?xml version="1.0" encoding="UTF-8" standalone="no"?>
<!DOCTYPE svg PUBLIC "-//W3C//DTD SVG 1.1//EN"
 "http://www.w3.org/Graphics/SVG/1.1/DTD/svg11.dtd">
<!-- Generated by graphviz version 2.38.0 (20140413.2041)
 -->
<!-- Title: controllers_diagram Pages: 1 -->
<svg width="654pt" height="631pt"
 viewBox="0.00 0.00 654.50 631.00" xmlns="http://www.w3.org/2000/svg" xmlns:xlink="http://www.w3.org/1999/xlink">
<g id="graph0" class="graph" transform="scale(1 1) rotate(0) translate(276 371.5)">
<title>controllers_diagram</title>
<polygon fill="none" stroke="none" points="-276,259.5 -276,-371.5 378.5,-371.5 378.5,259.5 -276,259.5"/>
<!-- _diagram_info -->
<g id="node1" class="node"><title>_diagram_info</title>
<text text-anchor="start" x="-152" y="-223.6" font-family="Times,serif" font-size="13.00">Controllers diagram</text>
<text text-anchor="start" x="-152" y="-209.6" font-family="Times,serif" font-size="13.00">Date: Apr 09 2018 &#45; 10:57</text>
<text text-anchor="start" x="-152" y="-195.6" font-family="Times,serif" font-size="13.00">Migration version: 20180408154028</text>
<text text-anchor="start" x="-152" y="-181.6" font-family="Times,serif" font-size="13.00">Generated by RailRoady 1.5.3</text>
<text text-anchor="start" x="-152" y="-167.6" font-family="Times,serif" font-size="13.00">http://railroady.prestonlee.com</text>
</g>
<!-- Users::RegistrationsController -->
<g id="node2" class="node"><title>Users::RegistrationsController</title>
<path fill="none" stroke="black" d="M92,79.5C92,79.5 250,79.5 250,79.5 256,79.5 262,73.5 262,67.5 262,67.5 262,-31.5 262,-31.5 262,-37.5 256,-43.5 250,-43.5 250,-43.5 92,-43.5 92,-43.5 86,-43.5 80,-37.5 80,-31.5 80,-31.5 80,67.5 80,67.5 80,73.5 86,79.5 92,79.5"/>
<text text-anchor="middle" x="171" y="-28.3" font-family="Times,serif" font-size="14.00">Users::RegistrationsController</text>
<polyline fill="none" stroke="black" points="80,-20.5 262,-20.5 "/>
<text text-anchor="start" x="88" y="-5.3" font-family="Times,serif" font-size="14.00">configure_sign_up_params</text>
<text text-anchor="start" x="88" y="9.7" font-family="Times,serif" font-size="14.00">create</text>
<text text-anchor="start" x="88" y="24.7" font-family="Times,serif" font-size="14.00">new</text>
<polyline fill="none" stroke="black" points="80,32.5 262,32.5 "/>
<polyline fill="none" stroke="black" points="80,56.5 262,56.5 "/>
<text text-anchor="start" x="88" y="71.7" font-family="Times,serif" font-size="14.00">_layout</text>
</g>
<!-- Users::UnlocksController -->
<g id="node3" class="node"><title>Users::UnlocksController</title>
<path fill="none" stroke="black" d="M-243.5,127C-243.5,127 -112.5,127 -112.5,127 -106.5,127 -100.5,121 -100.5,115 -100.5,115 -100.5,45 -100.5,45 -100.5,39 -106.5,33 -112.5,33 -112.5,33 -243.5,33 -243.5,33 -249.5,33 -255.5,39 -255.5,45 -255.5,45 -255.5,115 -255.5,115 -255.5,121 -249.5,127 -243.5,127"/>
<text text-anchor="middle" x="-178" y="48.2" font-family="Times,serif" font-size="14.00">Users::UnlocksController</text>
<polyline fill="none" stroke="black" points="-255.5,56 -100.5,56 "/>
<polyline fill="none" stroke="black" points="-255.5,80 -100.5,80 "/>
<polyline fill="none" stroke="black" points="-255.5,104 -100.5,104 "/>
<text text-anchor="start" x="-247.5" y="119.2" font-family="Times,serif" font-size="14.00">_layout</text>
</g>
<!-- Users::PasswordsController -->
<g id="node4" class="node"><title>Users::PasswordsController</title>
<path fill="none" stroke="black" d="M219.5,-209C219.5,-209 362.5,-209 362.5,-209 368.5,-209 374.5,-215 374.5,-221 374.5,-221 374.5,-291 374.5,-291 374.5,-297 368.5,-303 362.5,-303 362.5,-303 219.5,-303 219.5,-303 213.5,-303 207.5,-297 207.5,-291 207.5,-291 207.5,-221 207.5,-221 207.5,-215 213.5,-209 219.5,-209"/>
<text text-anchor="middle" x="291" y="-287.8" font-family="Times,serif" font-size="14.00">Users::PasswordsController</text>
<polyline fill="none" stroke="black" points="207.5,-280 374.5,-280 "/>
<polyline fill="none" stroke="black" points="207.5,-256 374.5,-256 "/>
<polyline fill="none" stroke="black" points="207.5,-232 374.5,-232 "/>
<text text-anchor="start" x="215.5" y="-216.8" font-family="Times,serif" font-size="14.00">_layout</text>
</g>
<!-- Users::SessionsController -->
<g id="node5" class="node"><title>Users::SessionsController</title>
<path fill="none" stroke="black" d="M-243.5,255C-243.5,255 -110.5,255 -110.5,255 -104.5,255 -98.5,249 -98.5,243 -98.5,243 -98.5,173 -98.5,173 -98.5,167 -104.5,161 -110.5,161 -110.5,161 -243.5,161 -243.5,161 -249.5,161 -255.5,167 -255.5,173 -255.5,173 -255.5,243 -255.5,243 -255.5,249 -249.5,255 -243.5,255"/>
<text text-anchor="middle" x="-177" y="176.2" font-family="Times,serif" font-size="14.00">Users::SessionsController</text>
<polyline fill="none" stroke="black" points="-255.5,184 -98.5,184 "/>
<polyline fill="none" stroke="black" points="-255.5,208 -98.5,208 "/>
<polyline fill="none" stroke="black" points="-255.5,232 -98.5,232 "/>
<text text-anchor="start" x="-247.5" y="247.2" font-family="Times,serif" font-size="14.00">_layout</text>
</g>
<!-- Users::OmniauthCallbacksController -->
<g id="node6" class="node"><title>Users::OmniauthCallbacksController</title>
<path fill="none" stroke="black" d="M92,-81C92,-81 286,-81 286,-81 292,-81 298,-87 298,-93 298,-93 298,-163 298,-163 298,-169 292,-175 286,-175 286,-175 92,-175 92,-175 86,-175 80,-169 80,-163 80,-163 80,-93 80,-93 80,-87 86,-81 92,-81"/>
<text text-anchor="middle" x="189" y="-159.8" font-family="Times,serif" font-size="14.00">Users::OmniauthCallbacksController</text>
<polyline fill="none" stroke="black" points="80,-152 298,-152 "/>
<polyline fill="none" stroke="black" points="80,-128 298,-128 "/>
<polyline fill="none" stroke="black" points="80,-104 298,-104 "/>
<text text-anchor="start" x="88" y="-88.8" font-family="Times,serif" font-size="14.00">_layout</text>
</g>
<!-- Users::ConfirmationsController -->
<g id="node7" class="node"><title>Users::ConfirmationsController</title>
<path fill="none" stroke="black" d="M92.5,207C92.5,207 257.5,207 257.5,207 263.5,207 269.5,201 269.5,195 269.5,195 269.5,125 269.5,125 269.5,119 263.5,113 257.5,113 257.5,113 92.5,113 92.5,113 86.5,113 80.5,119 80.5,125 80.5,125 80.5,195 80.5,195 80.5,201 86.5,207 92.5,207"/>
<text text-anchor="middle" x="175" y="128.2" font-family="Times,serif" font-size="14.00">Users::ConfirmationsController</text>
<polyline fill="none" stroke="black" points="80.5,136 269.5,136 "/>
<polyline fill="none" stroke="black" points="80.5,160 269.5,160 "/>
<polyline fill="none" stroke="black" points="80.5,184 269.5,184 "/>
<text text-anchor="start" x="88.5" y="199.2" font-family="Times,serif" font-size="14.00">_layout</text>
</g>
<!-- ApplicationController -->
<g id="node8" class="node"><title>ApplicationController</title>
<path fill="none" stroke="black" d="M44,-273C44,-273 156,-273 156,-273 162,-273 168,-279 168,-285 168,-285 168,-355 168,-355 168,-361 162,-367 156,-367 156,-367 44,-367 44,-367 38,-367 32,-361 32,-355 32,-355 32,-285 32,-285 32,-279 38,-273 44,-273"/>
<text text-anchor="middle" x="100" y="-351.8" font-family="Times,serif" font-size="14.00">ApplicationController</text>
<polyline fill="none" stroke="black" points="32,-344 168,-344 "/>
<polyline fill="none" stroke="black" points="32,-320 168,-320 "/>
<polyline fill="none" stroke="black" points="32,-296 168,-296 "/>
<text text-anchor="start" x="40" y="-280.8" font-family="Times,serif" font-size="14.00">_layout</text>
</g>
<!-- RegionsController -->
<g id="node9" class="node"><title>RegionsController</title>
<path fill="none" stroke="black" d="M-260,-272.5C-260,-272.5 -168,-272.5 -168,-272.5 -162,-272.5 -156,-278.5 -156,-284.5 -156,-284.5 -156,-353.5 -156,-353.5 -156,-359.5 -162,-365.5 -168,-365.5 -168,-365.5 -260,-365.5 -260,-365.5 -266,-365.5 -272,-359.5 -272,-353.5 -272,-353.5 -272,-284.5 -272,-284.5 -272,-278.5 -266,-272.5 -260,-272.5"/>
<text text-anchor="middle" x="-214" y="-350.3" font-family="Times,serif" font-size="14.00">RegionsController</text>
<polyline fill="none" stroke="black" points="-272,-342.5 -156,-342.5 "/>
<text text-anchor="start" x="-264" y="-327.3" font-family="Times,serif" font-size="14.00">select</text>
<polyline fill="none" stroke="black" points="-272,-319.5 -156,-319.5 "/>
<polyline fill="none" stroke="black" points="-272,-295.5 -156,-295.5 "/>
<text text-anchor="start" x="-264" y="-280.3" font-family="Times,serif" font-size="14.00">_layout</text>
</g>
<!-- ProductsController -->
<g id="node10" class="node"><title>ProductsController</title>
<path fill="none" stroke="black" d="M-51.5,143.5C-51.5,143.5 43.5,143.5 43.5,143.5 49.5,143.5 55.5,137.5 55.5,131.5 55.5,131.5 55.5,-117.5 55.5,-117.5 55.5,-123.5 49.5,-129.5 43.5,-129.5 43.5,-129.5 -51.5,-129.5 -51.5,-129.5 -57.5,-129.5 -63.5,-123.5 -63.5,-117.5 -63.5,-117.5 -63.5,131.5 -63.5,131.5 -63.5,137.5 -57.5,143.5 -51.5,143.5"/>
<text text-anchor="middle" x="-4" y="-114.3" font-family="Times,serif" font-size="14.00">ProductsController</text>
<polyline fill="none" stroke="black" points="-63.5,-106.5 55.5,-106.5 "/>
<text text-anchor="start" x="-55.5" y="-91.3" font-family="Times,serif" font-size="14.00">comment</text>
<text text-anchor="start" x="-55.5" y="-76.3" font-family="Times,serif" font-size="14.00">create</text>
<text text-anchor="start" x="-55.5" y="-61.3" font-family="Times,serif" font-size="14.00">destroy</text>
<text text-anchor="start" x="-55.5" y="-46.3" font-family="Times,serif" font-size="14.00">edit</text>
<text text-anchor="start" x="-55.5" y="-31.3" font-family="Times,serif" font-size="14.00">index</text>
<text text-anchor="start" x="-55.5" y="-16.3" font-family="Times,serif" font-size="14.00">new</text>
<text text-anchor="start" x="-55.5" y="-1.3" font-family="Times,serif" font-size="14.00">publications</text>
<text text-anchor="start" x="-55.5" y="13.7" font-family="Times,serif" font-size="14.00">purchases</text>
<text text-anchor="start" x="-55.5" y="28.7" font-family="Times,serif" font-size="14.00">sales</text>
<text text-anchor="start" x="-55.5" y="43.7" font-family="Times,serif" font-size="14.00">show</text>
<text text-anchor="start" x="-55.5" y="58.7" font-family="Times,serif" font-size="14.00">update</text>
<polyline fill="none" stroke="black" points="-63.5,66.5 55.5,66.5 "/>
<polyline fill="none" stroke="black" points="-63.5,90.5 55.5,90.5 "/>
<text text-anchor="start" x="-55.5" y="105.7" font-family="Times,serif" font-size="14.00">_layout</text>
<text text-anchor="start" x="-55.5" y="120.7" font-family="Times,serif" font-size="14.00">product_params</text>
<text text-anchor="start" x="-55.5" y="135.7" font-family="Times,serif" font-size="14.00">set_product</text>
</g>
<!-- CommunesController -->
<g id="node11" class="node"><title>CommunesController</title>
<path fill="none" stroke="black" d="M-115.5,-272.5C-115.5,-272.5 -4.5,-272.5 -4.5,-272.5 1.5,-272.5 7.5,-278.5 7.5,-284.5 7.5,-284.5 7.5,-353.5 7.5,-353.5 7.5,-359.5 1.5,-365.5 -4.5,-365.5 -4.5,-365.5 -115.5,-365.5 -115.5,-365.5 -121.5,-365.5 -127.5,-359.5 -127.5,-353.5 -127.5,-353.5 -127.5,-284.5 -127.5,-284.5 -127.5,-278.5 -121.5,-272.5 -115.5,-272.5"/>
<text text-anchor="middle" x="-60" y="-350.3" font-family="Times,serif" font-size="14.00">CommunesController</text>
<polyline fill="none" stroke="black" points="-127.5,-342.5 7.5,-342.5 "/>
<text text-anchor="start" x="-119.5" y="-327.3" font-family="Times,serif" font-size="14.00">select</text>
<polyline fill="none" stroke="black" points="-127.5,-319.5 7.5,-319.5 "/>
<polyline fill="none" stroke="black" points="-127.5,-295.5 7.5,-295.5 "/>
<text text-anchor="start" x="-119.5" y="-280.3" font-family="Times,serif" font-size="14.00">_layout</text>
</g>
<!-- TransactionsController -->
<g id="node12" class="node"><title>TransactionsController</title>
<path fill="none" stroke="black" d="M-227.5,-0.5C-227.5,-0.5 -110.5,-0.5 -110.5,-0.5 -104.5,-0.5 -98.5,-6.5 -98.5,-12.5 -98.5,-12.5 -98.5,-111.5 -98.5,-111.5 -98.5,-117.5 -104.5,-123.5 -110.5,-123.5 -110.5,-123.5 -227.5,-123.5 -227.5,-123.5 -233.5,-123.5 -239.5,-117.5 -239.5,-111.5 -239.5,-111.5 -239.5,-12.5 -239.5,-12.5 -239.5,-6.5 -233.5,-0.5 -227.5,-0.5"/>
<text text-anchor="middle" x="-169" y="-108.3" font-family="Times,serif" font-size="14.00">TransactionsController</text>
<polyline fill="none" stroke="black" points="-239.5,-100.5 -98.5,-100.5 "/>
<text text-anchor="start" x="-231.5" y="-85.3" font-family="Times,serif" font-size="14.00">create</text>
<text text-anchor="start" x="-231.5" y="-70.3" font-family="Times,serif" font-size="14.00">new</text>
<polyline fill="none" stroke="black" points="-239.5,-62.5 -98.5,-62.5 "/>
<polyline fill="none" stroke="black" points="-239.5,-38.5 -98.5,-38.5 "/>
<text text-anchor="start" x="-231.5" y="-23.3" font-family="Times,serif" font-size="14.00">_layout</text>
<text text-anchor="start" x="-231.5" y="-8.3" font-family="Times,serif" font-size="14.00">set_product</text>
</g>
</g>
</svg>
