<?xml version="1.0" encoding="UTF-8" standalone="no"?>
<!DOCTYPE svg PUBLIC "-//W3C//DTD SVG 1.1//EN"
 "http://www.w3.org/Graphics/SVG/1.1/DTD/svg11.dtd">
<!-- Generated by graphviz version 2.38.0 (20140413.2041)
 -->
<!-- Title: models_diagram Pages: 1 -->
<svg width="1037pt" height="1340pt"
 viewBox="0.00 0.00 1036.50 1340.00" xmlns="http://www.w3.org/2000/svg" xmlns:xlink="http://www.w3.org/1999/xlink">
<g id="graph0" class="graph" transform="scale(1 1) rotate(0) translate(4 1336)">
<title>models_diagram</title>
<polygon fill="none" stroke="none" points="-4,4 -4,-1336 1032.5,-1336 1032.5,4 -4,4"/>
<!-- _diagram_info -->
<g id="node1" class="node"><title>_diagram_info</title>
<text text-anchor="start" x="57" y="-1243.1" font-family="Times,serif" font-size="13.00">Models diagram</text>
<text text-anchor="start" x="57" y="-1229.1" font-family="Times,serif" font-size="13.00">Date: Apr 09 2018 &#45; 10:57</text>
<text text-anchor="start" x="57" y="-1215.1" font-family="Times,serif" font-size="13.00">Migration version: 20180408154028</text>
<text text-anchor="start" x="57" y="-1201.1" font-family="Times,serif" font-size="13.00">Generated by RailRoady 1.5.3</text>
<text text-anchor="start" x="57" y="-1187.1" font-family="Times,serif" font-size="13.00">http://railroady.prestonlee.com</text>
</g>
<!-- Photo -->
<g id="node2" class="node"><title>Photo</title>
<path fill="none" stroke="black" d="M368,-30.5C368,-30.5 588,-30.5 588,-30.5 594,-30.5 600,-36.5 600,-42.5 600,-42.5 600,-124.5 600,-124.5 600,-130.5 594,-136.5 588,-136.5 588,-136.5 368,-136.5 368,-136.5 362,-136.5 356,-130.5 356,-124.5 356,-124.5 356,-42.5 356,-42.5 356,-36.5 362,-30.5 368,-30.5"/>
<text text-anchor="middle" x="478" y="-121.3" font-family="Times,serif" font-size="14.00">Photo</text>
<polyline fill="none" stroke="black" points="356,-113.5 600,-113.5 "/>
<text text-anchor="start" x="364" y="-98.3" font-family="Times,serif" font-size="14.00">id :bigint</text>
<text text-anchor="start" x="364" y="-83.3" font-family="Times,serif" font-size="14.00">product_id :bigint</text>
<text text-anchor="start" x="364" y="-68.3" font-family="Times,serif" font-size="14.00">created_at :timestamp without time zone</text>
<text text-anchor="start" x="364" y="-53.3" font-family="Times,serif" font-size="14.00">updated_at :timestamp without time zone</text>
<text text-anchor="start" x="364" y="-38.3" font-family="Times,serif" font-size="14.00">title :character varying</text>
</g>
<!-- Country -->
<g id="node3" class="node"><title>Country</title>
<path fill="none" stroke="black" d="M293,-1173C293,-1173 513,-1173 513,-1173 519,-1173 525,-1179 525,-1185 525,-1185 525,-1252 525,-1252 525,-1258 519,-1264 513,-1264 513,-1264 293,-1264 293,-1264 287,-1264 281,-1258 281,-1252 281,-1252 281,-1185 281,-1185 281,-1179 287,-1173 293,-1173"/>
<text text-anchor="middle" x="403" y="-1248.8" font-family="Times,serif" font-size="14.00">Country</text>
<polyline fill="none" stroke="black" points="281,-1241 525,-1241 "/>
<text text-anchor="start" x="289" y="-1225.8" font-family="Times,serif" font-size="14.00">id :bigint</text>
<text text-anchor="start" x="289" y="-1210.8" font-family="Times,serif" font-size="14.00">name :character varying</text>
<text text-anchor="start" x="289" y="-1195.8" font-family="Times,serif" font-size="14.00">created_at :timestamp without time zone</text>
<text text-anchor="start" x="289" y="-1180.8" font-family="Times,serif" font-size="14.00">updated_at :timestamp without time zone</text>
</g>
<!-- Region -->
<g id="node7" class="node"><title>Region</title>
<path fill="none" stroke="black" d="M293,-962.5C293,-962.5 513,-962.5 513,-962.5 519,-962.5 525,-968.5 525,-974.5 525,-974.5 525,-1056.5 525,-1056.5 525,-1062.5 519,-1068.5 513,-1068.5 513,-1068.5 293,-1068.5 293,-1068.5 287,-1068.5 281,-1062.5 281,-1056.5 281,-1056.5 281,-974.5 281,-974.5 281,-968.5 287,-962.5 293,-962.5"/>
<text text-anchor="middle" x="403" y="-1053.3" font-family="Times,serif" font-size="14.00">Region</text>
<polyline fill="none" stroke="black" points="281,-1045.5 525,-1045.5 "/>
<text text-anchor="start" x="289" y="-1030.3" font-family="Times,serif" font-size="14.00">id :bigint</text>
<text text-anchor="start" x="289" y="-1015.3" font-family="Times,serif" font-size="14.00">name :character varying</text>
<text text-anchor="start" x="289" y="-1000.3" font-family="Times,serif" font-size="14.00">country_id :bigint</text>
<text text-anchor="start" x="289" y="-985.3" font-family="Times,serif" font-size="14.00">created_at :timestamp without time zone</text>
<text text-anchor="start" x="289" y="-970.3" font-family="Times,serif" font-size="14.00">updated_at :timestamp without time zone</text>
</g>
<!-- Country&#45;&gt;Region -->
<g id="edge1" class="edge"><title>Country&#45;&gt;Region</title>
<path fill="none" stroke="#666776" d="M403,-1164.75C403,-1138.5 403,-1106.59 403,-1079.1"/>
<ellipse fill="none" stroke="#666776" cx="403" cy="-1168.89" rx="4" ry="4"/>
<polygon fill="#666776" stroke="#666776" points="403,-1078.81 407.5,-1068.81 403,-1073.81 403,-1068.81 403,-1068.81 403,-1068.81 403,-1073.81 398.5,-1068.81 403,-1078.81 403,-1078.81"/>
</g>
<!-- Transaction -->
<g id="node4" class="node"><title>Transaction</title>
<path fill="none" stroke="black" d="M106,-0.5C106,-0.5 326,-0.5 326,-0.5 332,-0.5 338,-6.5 338,-12.5 338,-12.5 338,-154.5 338,-154.5 338,-160.5 332,-166.5 326,-166.5 326,-166.5 106,-166.5 106,-166.5 100,-166.5 94,-160.5 94,-154.5 94,-154.5 94,-12.5 94,-12.5 94,-6.5 100,-0.5 106,-0.5"/>
<text text-anchor="middle" x="216" y="-151.3" font-family="Times,serif" font-size="14.00">Transaction</text>
<polyline fill="none" stroke="black" points="94,-143.5 338,-143.5 "/>
<text text-anchor="start" x="102" y="-128.3" font-family="Times,serif" font-size="14.00">id :bigint</text>
<text text-anchor="start" x="102" y="-113.3" font-family="Times,serif" font-size="14.00">total :double precision</text>
<text text-anchor="start" x="102" y="-98.3" font-family="Times,serif" font-size="14.00">payed :boolean</text>
<text text-anchor="start" x="102" y="-83.3" font-family="Times,serif" font-size="14.00">user_id :bigint</text>
<text text-anchor="start" x="102" y="-68.3" font-family="Times,serif" font-size="14.00">product_id :bigint</text>
<text text-anchor="start" x="102" y="-53.3" font-family="Times,serif" font-size="14.00">pay_id :bigint</text>
<text text-anchor="start" x="102" y="-38.3" font-family="Times,serif" font-size="14.00">created_at :timestamp without time zone</text>
<text text-anchor="start" x="102" y="-23.3" font-family="Times,serif" font-size="14.00">updated_at :timestamp without time zone</text>
<text text-anchor="start" x="102" y="-8.3" font-family="Times,serif" font-size="14.00">quantity :integer</text>
</g>
<!-- Gender -->
<g id="node5" class="node"><title>Gender</title>
<path fill="none" stroke="black" d="M31,-827C31,-827 251,-827 251,-827 257,-827 263,-833 263,-839 263,-839 263,-906 263,-906 263,-912 257,-918 251,-918 251,-918 31,-918 31,-918 25,-918 19,-912 19,-906 19,-906 19,-839 19,-839 19,-833 25,-827 31,-827"/>
<text text-anchor="middle" x="141" y="-902.8" font-family="Times,serif" font-size="14.00">Gender</text>
<polyline fill="none" stroke="black" points="19,-895 263,-895 "/>
<text text-anchor="start" x="27" y="-879.8" font-family="Times,serif" font-size="14.00">id :bigint</text>
<text text-anchor="start" x="27" y="-864.8" font-family="Times,serif" font-size="14.00">name :character varying</text>
<text text-anchor="start" x="27" y="-849.8" font-family="Times,serif" font-size="14.00">created_at :timestamp without time zone</text>
<text text-anchor="start" x="27" y="-834.8" font-family="Times,serif" font-size="14.00">updated_at :timestamp without time zone</text>
</g>
<!-- User -->
<g id="node13" class="node"><title>User</title>
<path fill="none" stroke="black" d="M127.5,-421.5C127.5,-421.5 416.5,-421.5 416.5,-421.5 422.5,-421.5 428.5,-427.5 428.5,-433.5 428.5,-433.5 428.5,-770.5 428.5,-770.5 428.5,-776.5 422.5,-782.5 416.5,-782.5 416.5,-782.5 127.5,-782.5 127.5,-782.5 121.5,-782.5 115.5,-776.5 115.5,-770.5 115.5,-770.5 115.5,-433.5 115.5,-433.5 115.5,-427.5 121.5,-421.5 127.5,-421.5"/>
<text text-anchor="middle" x="272" y="-767.3" font-family="Times,serif" font-size="14.00">User</text>
<polyline fill="none" stroke="black" points="115.5,-759.5 428.5,-759.5 "/>
<text text-anchor="start" x="123.5" y="-744.3" font-family="Times,serif" font-size="14.00">id :bigint</text>
<text text-anchor="start" x="123.5" y="-729.3" font-family="Times,serif" font-size="14.00">email :character varying</text>
<text text-anchor="start" x="123.5" y="-714.3" font-family="Times,serif" font-size="14.00">encrypted_password :character varying</text>
<text text-anchor="start" x="123.5" y="-699.3" font-family="Times,serif" font-size="14.00">reset_password_token :character varying</text>
<text text-anchor="start" x="123.5" y="-684.3" font-family="Times,serif" font-size="14.00">reset_password_sent_at :timestamp without time zone</text>
<text text-anchor="start" x="123.5" y="-669.3" font-family="Times,serif" font-size="14.00">remember_created_at :timestamp without time zone</text>
<text text-anchor="start" x="123.5" y="-654.3" font-family="Times,serif" font-size="14.00">sign_in_count :integer</text>
<text text-anchor="start" x="123.5" y="-639.3" font-family="Times,serif" font-size="14.00">current_sign_in_at :timestamp without time zone</text>
<text text-anchor="start" x="123.5" y="-624.3" font-family="Times,serif" font-size="14.00">last_sign_in_at :timestamp without time zone</text>
<text text-anchor="start" x="123.5" y="-609.3" font-family="Times,serif" font-size="14.00">current_sign_in_ip :inet</text>
<text text-anchor="start" x="123.5" y="-594.3" font-family="Times,serif" font-size="14.00">last_sign_in_ip :inet</text>
<text text-anchor="start" x="123.5" y="-579.3" font-family="Times,serif" font-size="14.00">name :character varying</text>
<text text-anchor="start" x="123.5" y="-564.3" font-family="Times,serif" font-size="14.00">last_name :character varying</text>
<text text-anchor="start" x="123.5" y="-549.3" font-family="Times,serif" font-size="14.00">phone :character varying</text>
<text text-anchor="start" x="123.5" y="-534.3" font-family="Times,serif" font-size="14.00">birth_date :date</text>
<text text-anchor="start" x="123.5" y="-519.3" font-family="Times,serif" font-size="14.00">address :character varying</text>
<text text-anchor="start" x="123.5" y="-504.3" font-family="Times,serif" font-size="14.00">rut :character varying</text>
<text text-anchor="start" x="123.5" y="-489.3" font-family="Times,serif" font-size="14.00">score :double precision</text>
<text text-anchor="start" x="123.5" y="-474.3" font-family="Times,serif" font-size="14.00">created_at :timestamp without time zone</text>
<text text-anchor="start" x="123.5" y="-459.3" font-family="Times,serif" font-size="14.00">updated_at :timestamp without time zone</text>
<text text-anchor="start" x="123.5" y="-444.3" font-family="Times,serif" font-size="14.00">commune_id :bigint</text>
<text text-anchor="start" x="123.5" y="-429.3" font-family="Times,serif" font-size="14.00">gender_id :bigint</text>
</g>
<!-- Gender&#45;&gt;User -->
<g id="edge2" class="edge"><title>Gender&#45;&gt;User</title>
<path fill="none" stroke="#53786d" d="M166.306,-819.633C170.522,-810.991 175.101,-801.607 179.91,-791.75"/>
<ellipse fill="none" stroke="#53786d" cx="164.533" cy="-823.266" rx="4.00002" ry="4.00002"/>
<polygon fill="#53786d" stroke="#53786d" points="180.002,-791.561 188.431,-784.547 182.194,-787.067 184.387,-782.574 184.387,-782.574 184.387,-782.574 182.194,-787.067 180.342,-780.6 180.002,-791.561 180.002,-791.561"/>
</g>
<!-- ApplicationRecord -->
<g id="node6" class="node"><title>ApplicationRecord</title>
<ellipse fill="none" stroke="black" cx="620" cy="-1218.5" rx="77.1866" ry="18"/>
<text text-anchor="middle" x="620" y="-1214.8" font-family="Times,serif" font-size="14.00">ApplicationRecord</text>
</g>
<!-- Commune -->
<g id="node10" class="node"><title>Commune</title>
<path fill="none" stroke="black" d="M293,-819.5C293,-819.5 513,-819.5 513,-819.5 519,-819.5 525,-825.5 525,-831.5 525,-831.5 525,-913.5 525,-913.5 525,-919.5 519,-925.5 513,-925.5 513,-925.5 293,-925.5 293,-925.5 287,-925.5 281,-919.5 281,-913.5 281,-913.5 281,-831.5 281,-831.5 281,-825.5 287,-819.5 293,-819.5"/>
<text text-anchor="middle" x="403" y="-910.3" font-family="Times,serif" font-size="14.00">Commune</text>
<polyline fill="none" stroke="black" points="281,-902.5 525,-902.5 "/>
<text text-anchor="start" x="289" y="-887.3" font-family="Times,serif" font-size="14.00">id :bigint</text>
<text text-anchor="start" x="289" y="-872.3" font-family="Times,serif" font-size="14.00">name :character varying</text>
<text text-anchor="start" x="289" y="-857.3" font-family="Times,serif" font-size="14.00">region_id :bigint</text>
<text text-anchor="start" x="289" y="-842.3" font-family="Times,serif" font-size="14.00">created_at :timestamp without time zone</text>
<text text-anchor="start" x="289" y="-827.3" font-family="Times,serif" font-size="14.00">updated_at :timestamp without time zone</text>
</g>
<!-- Region&#45;&gt;Commune -->
<g id="edge3" class="edge"><title>Region&#45;&gt;Commune</title>
<path fill="none" stroke="#9805e5" d="M403,-954.194C403,-948.154 403,-942.013 403,-935.952"/>
<ellipse fill="none" stroke="#9805e5" cx="403" cy="-958.397" rx="4" ry="4"/>
<polygon fill="#9805e5" stroke="#9805e5" points="403,-935.859 407.5,-925.859 403,-930.859 403,-925.859 403,-925.859 403,-925.859 403,-930.859 398.5,-925.859 403,-935.859 403,-935.859"/>
</g>
<!-- Pay -->
<g id="node8" class="node"><title>Pay</title>
<path fill="none" stroke="black" d="M12,-248.5C12,-248.5 232,-248.5 232,-248.5 238,-248.5 244,-254.5 244,-260.5 244,-260.5 244,-327.5 244,-327.5 244,-333.5 238,-339.5 232,-339.5 232,-339.5 12,-339.5 12,-339.5 6,-339.5 0,-333.5 0,-327.5 0,-327.5 0,-260.5 0,-260.5 0,-254.5 6,-248.5 12,-248.5"/>
<text text-anchor="middle" x="122" y="-324.3" font-family="Times,serif" font-size="14.00">Pay</text>
<polyline fill="none" stroke="black" points="0,-316.5 244,-316.5 "/>
<text text-anchor="start" x="8" y="-301.3" font-family="Times,serif" font-size="14.00">id :bigint</text>
<text text-anchor="start" x="8" y="-286.3" font-family="Times,serif" font-size="14.00">name :character varying</text>
<text text-anchor="start" x="8" y="-271.3" font-family="Times,serif" font-size="14.00">created_at :timestamp without time zone</text>
<text text-anchor="start" x="8" y="-256.3" font-family="Times,serif" font-size="14.00">updated_at :timestamp without time zone</text>
</g>
<!-- Pay&#45;&gt;Transaction -->
<g id="edge4" class="edge"><title>Pay&#45;&gt;Transaction</title>
<path fill="none" stroke="#280a5f" d="M145.519,-240.832C154.416,-221.099 164.823,-198.015 174.867,-175.737"/>
<ellipse fill="none" stroke="#280a5f" cx="143.809" cy="-244.625" rx="4.00002" ry="4.00002"/>
<polygon fill="#280a5f" stroke="#280a5f" points="174.883,-175.702 183.095,-168.435 176.938,-171.144 178.993,-166.586 178.993,-166.586 178.993,-166.586 176.938,-171.144 174.89,-164.736 174.883,-175.702 174.883,-175.702"/>
</g>
<!-- AdminUser -->
<g id="node9" class="node"><title>AdminUser</title>
<path fill="none" stroke="black" d="M727.5,-1105.5C727.5,-1105.5 1016.5,-1105.5 1016.5,-1105.5 1022.5,-1105.5 1028.5,-1111.5 1028.5,-1117.5 1028.5,-1117.5 1028.5,-1319.5 1028.5,-1319.5 1028.5,-1325.5 1022.5,-1331.5 1016.5,-1331.5 1016.5,-1331.5 727.5,-1331.5 727.5,-1331.5 721.5,-1331.5 715.5,-1325.5 715.5,-1319.5 715.5,-1319.5 715.5,-1117.5 715.5,-1117.5 715.5,-1111.5 721.5,-1105.5 727.5,-1105.5"/>
<text text-anchor="middle" x="872" y="-1316.3" font-family="Times,serif" font-size="14.00">AdminUser</text>
<polyline fill="none" stroke="black" points="715.5,-1308.5 1028.5,-1308.5 "/>
<text text-anchor="start" x="723.5" y="-1293.3" font-family="Times,serif" font-size="14.00">id :bigint</text>
<text text-anchor="start" x="723.5" y="-1278.3" font-family="Times,serif" font-size="14.00">email :character varying</text>
<text text-anchor="start" x="723.5" y="-1263.3" font-family="Times,serif" font-size="14.00">encrypted_password :character varying</text>
<text text-anchor="start" x="723.5" y="-1248.3" font-family="Times,serif" font-size="14.00">reset_password_token :character varying</text>
<text text-anchor="start" x="723.5" y="-1233.3" font-family="Times,serif" font-size="14.00">reset_password_sent_at :timestamp without time zone</text>
<text text-anchor="start" x="723.5" y="-1218.3" font-family="Times,serif" font-size="14.00">remember_created_at :timestamp without time zone</text>
<text text-anchor="start" x="723.5" y="-1203.3" font-family="Times,serif" font-size="14.00">sign_in_count :integer</text>
<text text-anchor="start" x="723.5" y="-1188.3" font-family="Times,serif" font-size="14.00">current_sign_in_at :timestamp without time zone</text>
<text text-anchor="start" x="723.5" y="-1173.3" font-family="Times,serif" font-size="14.00">last_sign_in_at :timestamp without time zone</text>
<text text-anchor="start" x="723.5" y="-1158.3" font-family="Times,serif" font-size="14.00">current_sign_in_ip :inet</text>
<text text-anchor="start" x="723.5" y="-1143.3" font-family="Times,serif" font-size="14.00">last_sign_in_ip :inet</text>
<text text-anchor="start" x="723.5" y="-1128.3" font-family="Times,serif" font-size="14.00">created_at :timestamp without time zone</text>
<text text-anchor="start" x="723.5" y="-1113.3" font-family="Times,serif" font-size="14.00">updated_at :timestamp without time zone</text>
</g>
<!-- Commune&#45;&gt;User -->
<g id="edge5" class="edge"><title>Commune&#45;&gt;User</title>
<path fill="none" stroke="#887459" d="M374.048,-812.159C370.879,-805.664 367.542,-798.825 364.086,-791.742"/>
<ellipse fill="none" stroke="#887459" cx="375.833" cy="-815.817" rx="4.00002" ry="4.00002"/>
<polygon fill="#887459" stroke="#887459" points="364.034,-791.635 363.694,-780.675 361.842,-787.142 359.649,-782.648 359.649,-782.648 359.649,-782.648 361.842,-787.142 355.605,-784.621 364.034,-791.635 364.034,-791.635"/>
</g>
<!-- Category -->
<g id="node11" class="node"><title>Category</title>
<path fill="none" stroke="black" d="M459,-556.5C459,-556.5 679,-556.5 679,-556.5 685,-556.5 691,-562.5 691,-568.5 691,-568.5 691,-635.5 691,-635.5 691,-641.5 685,-647.5 679,-647.5 679,-647.5 459,-647.5 459,-647.5 453,-647.5 447,-641.5 447,-635.5 447,-635.5 447,-568.5 447,-568.5 447,-562.5 453,-556.5 459,-556.5"/>
<text text-anchor="middle" x="569" y="-632.3" font-family="Times,serif" font-size="14.00">Category</text>
<polyline fill="none" stroke="black" points="447,-624.5 691,-624.5 "/>
<text text-anchor="start" x="455" y="-609.3" font-family="Times,serif" font-size="14.00">id :bigint</text>
<text text-anchor="start" x="455" y="-594.3" font-family="Times,serif" font-size="14.00">name :character varying</text>
<text text-anchor="start" x="455" y="-579.3" font-family="Times,serif" font-size="14.00">created_at :timestamp without time zone</text>
<text text-anchor="start" x="455" y="-564.3" font-family="Times,serif" font-size="14.00">updated_at :timestamp without time zone</text>
</g>
<!-- Product -->
<g id="node14" class="node"><title>Product</title>
<path fill="none" stroke="black" d="M368,-203.5C368,-203.5 588,-203.5 588,-203.5 594,-203.5 600,-209.5 600,-215.5 600,-215.5 600,-372.5 600,-372.5 600,-378.5 594,-384.5 588,-384.5 588,-384.5 368,-384.5 368,-384.5 362,-384.5 356,-378.5 356,-372.5 356,-372.5 356,-215.5 356,-215.5 356,-209.5 362,-203.5 368,-203.5"/>
<text text-anchor="middle" x="478" y="-369.3" font-family="Times,serif" font-size="14.00">Product</text>
<polyline fill="none" stroke="black" points="356,-361.5 600,-361.5 "/>
<text text-anchor="start" x="364" y="-346.3" font-family="Times,serif" font-size="14.00">id :bigint</text>
<text text-anchor="start" x="364" y="-331.3" font-family="Times,serif" font-size="14.00">category_id :bigint</text>
<text text-anchor="start" x="364" y="-316.3" font-family="Times,serif" font-size="14.00">name :character varying</text>
<text text-anchor="start" x="364" y="-301.3" font-family="Times,serif" font-size="14.00">price :double precision</text>
<text text-anchor="start" x="364" y="-286.3" font-family="Times,serif" font-size="14.00">user_id :bigint</text>
<text text-anchor="start" x="364" y="-271.3" font-family="Times,serif" font-size="14.00">stock :integer</text>
<text text-anchor="start" x="364" y="-256.3" font-family="Times,serif" font-size="14.00">block :boolean</text>
<text text-anchor="start" x="364" y="-241.3" font-family="Times,serif" font-size="14.00">description :text</text>
<text text-anchor="start" x="364" y="-226.3" font-family="Times,serif" font-size="14.00">created_at :timestamp without time zone</text>
<text text-anchor="start" x="364" y="-211.3" font-family="Times,serif" font-size="14.00">updated_at :timestamp without time zone</text>
</g>
<!-- Category&#45;&gt;Product -->
<g id="edge6" class="edge"><title>Category&#45;&gt;Product</title>
<path fill="none" stroke="#778e7f" d="M553.331,-548.309C540.769,-506.07 522.784,-445.594 507.538,-394.325"/>
<ellipse fill="none" stroke="#778e7f" cx="554.53" cy="-552.343" rx="4.00001" ry="4.00001"/>
<polygon fill="#778e7f" stroke="#778e7f" points="507.477,-394.12 508.94,-383.252 506.052,-389.327 504.626,-384.534 504.626,-384.534 504.626,-384.534 506.052,-389.327 500.313,-385.817 507.477,-394.12 507.477,-394.12"/>
</g>
<!-- Comment -->
<g id="node12" class="node"><title>Comment</title>
<path fill="none" stroke="black" d="M630,-23C630,-23 850,-23 850,-23 856,-23 862,-29 862,-35 862,-35 862,-132 862,-132 862,-138 856,-144 850,-144 850,-144 630,-144 630,-144 624,-144 618,-138 618,-132 618,-132 618,-35 618,-35 618,-29 624,-23 630,-23"/>
<text text-anchor="middle" x="740" y="-128.8" font-family="Times,serif" font-size="14.00">Comment</text>
<polyline fill="none" stroke="black" points="618,-121 862,-121 "/>
<text text-anchor="start" x="626" y="-105.8" font-family="Times,serif" font-size="14.00">id :bigint</text>
<text text-anchor="start" x="626" y="-90.8" font-family="Times,serif" font-size="14.00">user_id :bigint</text>
<text text-anchor="start" x="626" y="-75.8" font-family="Times,serif" font-size="14.00">product_id :bigint</text>
<text text-anchor="start" x="626" y="-60.8" font-family="Times,serif" font-size="14.00">contain :character varying</text>
<text text-anchor="start" x="626" y="-45.8" font-family="Times,serif" font-size="14.00">created_at :timestamp without time zone</text>
<text text-anchor="start" x="626" y="-30.8" font-family="Times,serif" font-size="14.00">updated_at :timestamp without time zone</text>
</g>
<!-- User&#45;&gt;Transaction -->
<g id="edge8" class="edge"><title>User&#45;&gt;Transaction</title>
<path fill="none" stroke="#917cf8" d="M272.842,-413.021C270.559,-346.29 265.019,-270.911 253,-203 251.472,-194.365 249.495,-185.482 247.25,-176.647"/>
<ellipse fill="none" stroke="#917cf8" cx="272.975" cy="-417.117" rx="4" ry="4"/>
<polygon fill="#917cf8" stroke="#917cf8" points="247.177,-176.373 248.961,-165.553 245.895,-171.541 244.612,-166.708 244.612,-166.708 244.612,-166.708 245.895,-171.541 240.262,-167.863 247.177,-176.373 247.177,-176.373"/>
</g>
<!-- User&#45;&gt;Product -->
<g id="edge7" class="edge"><title>User&#45;&gt;Product</title>
<path fill="none" stroke="#fe0d45" d="M397.537,-414.522C402.348,-407.376 407.09,-400.332 411.718,-393.458"/>
<ellipse fill="none" stroke="#fe0d45" cx="395.256" cy="-417.91" rx="4.00002" ry="4.00002"/>
<polygon fill="#fe0d45" stroke="#fe0d45" points="411.931,-393.141 421.249,-387.359 414.723,-388.993 417.516,-384.846 417.516,-384.846 417.516,-384.846 414.723,-388.993 413.783,-382.333 411.931,-393.141 411.931,-393.141"/>
</g>
<!-- Product&#45;&gt;Photo -->
<g id="edge9" class="edge"><title>Product&#45;&gt;Photo</title>
<path fill="none" stroke="#e30c28" d="M478,-195.342C478,-178.918 478,-162.275 478,-147.052"/>
<ellipse fill="none" stroke="#e30c28" cx="478" cy="-199.367" rx="4" ry="4"/>
<polygon fill="#e30c28" stroke="#e30c28" points="478,-146.76 482.5,-136.76 478,-141.76 478,-136.76 478,-136.76 478,-136.76 478,-141.76 473.5,-136.76 478,-146.76 478,-146.76"/>
</g>
<!-- Product&#45;&gt;Transaction -->
<g id="edge10" class="edge"><title>Product&#45;&gt;Transaction</title>
<path fill="none" stroke="#10f3a8" d="M358.914,-198.231C348.412,-189.874 337.808,-181.435 327.373,-173.131"/>
<ellipse fill="none" stroke="#10f3a8" cx="362.238" cy="-200.876" rx="4.00002" ry="4.00002"/>
<polygon fill="#10f3a8" stroke="#10f3a8" points="327.256,-173.038 322.234,-163.29 323.344,-169.925 319.432,-166.811 319.432,-166.811 319.432,-166.811 323.344,-169.925 316.63,-170.332 327.256,-173.038 327.256,-173.038"/>
</g>
<!-- Product&#45;&gt;Comment -->
<g id="edge11" class="edge"><title>Product&#45;&gt;Comment</title>
<path fill="none" stroke="#ecef19" d="M597.122,-198.203C617.304,-182.142 637.865,-165.78 656.867,-150.657"/>
<ellipse fill="none" stroke="#ecef19" cx="593.762" cy="-200.876" rx="4.00002" ry="4.00002"/>
<polygon fill="#ecef19" stroke="#ecef19" points="657.086,-150.483 667.712,-147.778 660.998,-147.37 664.91,-144.256 664.91,-144.256 664.91,-144.256 660.998,-147.37 662.108,-140.735 657.086,-150.483 657.086,-150.483"/>
</g>
</g>
</svg>
