<?xml version="1.0" encoding="UTF-8" standalone="no"?>
<!DOCTYPE svg PUBLIC "-//W3C//DTD SVG 1.1//EN"
 "http://www.w3.org/Graphics/SVG/1.1/DTD/svg11.dtd">
<!-- Generated by graphviz version 2.38.0 (20140413.2041)
 -->
<!-- Title: models_diagram Pages: 1 -->
<svg width="614pt" height="446pt"
 viewBox="0.00 0.00 614.00 446.00" xmlns="http://www.w3.org/2000/svg" xmlns:xlink="http://www.w3.org/1999/xlink">
<g id="graph0" class="graph" transform="scale(1 1) rotate(0) translate(4 442)">
<title>models_diagram</title>
<polygon fill="none" stroke="none" points="-4,4 -4,-442 609.995,-442 609.995,4 -4,4"/>
<!-- _diagram_info -->
<g id="node1" class="node"><title>_diagram_info</title>
<text text-anchor="start" x="8" y="-423.6" font-family="Times,serif" font-size="13.00">Models diagram</text>
<text text-anchor="start" x="8" y="-409.6" font-family="Times,serif" font-size="13.00">Date: Apr 09 2018 &#45; 10:57</text>
<text text-anchor="start" x="8" y="-395.6" font-family="Times,serif" font-size="13.00">Migration version: 20180408154028</text>
<text text-anchor="start" x="8" y="-381.6" font-family="Times,serif" font-size="13.00">Generated by RailRoady 1.5.3</text>
<text text-anchor="start" x="8" y="-367.6" font-family="Times,serif" font-size="13.00">http://railroady.prestonlee.com</text>
</g>
<!-- Photo -->
<g id="node2" class="node"><title>Photo</title>
<ellipse fill="none" stroke="black" cx="298" cy="-18" rx="31.3957" ry="18"/>
<text text-anchor="middle" x="298" y="-14.3" font-family="Times,serif" font-size="14.00">Photo</text>
</g>
<!-- Country -->
<g id="node3" class="node"><title>Country</title>
<ellipse fill="none" stroke="black" cx="272" cy="-399" rx="39.7935" ry="18"/>
<text text-anchor="middle" x="272" y="-395.3" font-family="Times,serif" font-size="14.00">Country</text>
</g>
<!-- Region -->
<g id="node7" class="node"><title>Region</title>
<ellipse fill="none" stroke="black" cx="272" cy="-306" rx="36.2938" ry="18"/>
<text text-anchor="middle" x="272" y="-302.3" font-family="Times,serif" font-size="14.00">Region</text>
</g>
<!-- Country&#45;&gt;Region -->
<g id="edge1" class="edge"><title>Country&#45;&gt;Region</title>
<path fill="none" stroke="#c7d175" d="M272,-372.729C272,-360.725 272,-346.362 272,-334.129"/>
<ellipse fill="none" stroke="#c7d175" cx="272" cy="-376.884" rx="4" ry="4"/>
<polygon fill="#c7d175" stroke="#c7d175" points="272,-334.04 276.5,-324.04 272,-329.04 272,-324.04 272,-324.04 272,-324.04 272,-329.04 267.5,-324.04 272,-334.04 272,-334.04"/>
</g>
<!-- Transaction -->
<g id="node4" class="node"><title>Transaction</title>
<ellipse fill="none" stroke="black" cx="197" cy="-18" rx="51.9908" ry="18"/>
<text text-anchor="middle" x="197" y="-14.3" font-family="Times,serif" font-size="14.00">Transaction</text>
</g>
<!-- Gender -->
<g id="node5" class="node"><title>Gender</title>
<ellipse fill="none" stroke="black" cx="170" cy="-234" rx="36.2938" ry="18"/>
<text text-anchor="middle" x="170" y="-230.3" font-family="Times,serif" font-size="14.00">Gender</text>
</g>
<!-- User -->
<g id="node13" class="node"><title>User</title>
<ellipse fill="none" stroke="black" cx="221" cy="-162" rx="27.0966" ry="18"/>
<text text-anchor="middle" x="221" y="-158.3" font-family="Times,serif" font-size="14.00">User</text>
</g>
<!-- Gender&#45;&gt;User -->
<g id="edge2" class="edge"><title>Gender&#45;&gt;User</title>
<path fill="none" stroke="#977780" d="M186.57,-210.257C191.979,-202.833 198.001,-194.567 203.478,-187.05"/>
<ellipse fill="none" stroke="#977780" cx="184.184" cy="-213.532" rx="4.00002" ry="4.00002"/>
<polygon fill="#977780" stroke="#977780" points="203.698,-186.748 213.223,-181.316 206.642,-182.707 209.586,-178.666 209.586,-178.666 209.586,-178.666 206.642,-182.707 205.949,-176.016 203.698,-186.748 203.698,-186.748"/>
</g>
<!-- ApplicationRecord -->
<g id="node6" class="node"><title>ApplicationRecord</title>
<ellipse fill="none" stroke="black" cx="407" cy="-399" rx="77.1866" ry="18"/>
<text text-anchor="middle" x="407" y="-395.3" font-family="Times,serif" font-size="14.00">ApplicationRecord</text>
</g>
<!-- Commune -->
<g id="node10" class="node"><title>Commune</title>
<ellipse fill="none" stroke="black" cx="272" cy="-234" rx="48.1917" ry="18"/>
<text text-anchor="middle" x="272" y="-230.3" font-family="Times,serif" font-size="14.00">Commune</text>
</g>
<!-- Region&#45;&gt;Commune -->
<g id="edge3" class="edge"><title>Region&#45;&gt;Commune</title>
<path fill="none" stroke="#267a34" d="M272,-279.64C272,-274.063 272,-268.132 272,-262.476"/>
<ellipse fill="none" stroke="#267a34" cx="272" cy="-283.697" rx="4" ry="4"/>
<polygon fill="#267a34" stroke="#267a34" points="272,-262.104 276.5,-252.104 272,-257.104 272,-252.104 272,-252.104 272,-252.104 272,-257.104 267.5,-252.104 272,-262.104 272,-262.104"/>
</g>
<!-- Pay -->
<g id="node8" class="node"><title>Pay</title>
<ellipse fill="none" stroke="black" cx="166" cy="-90" rx="27" ry="18"/>
<text text-anchor="middle" x="166" y="-86.3" font-family="Times,serif" font-size="14.00">Pay</text>
</g>
<!-- Pay&#45;&gt;Transaction -->
<g id="edge4" class="edge"><title>Pay&#45;&gt;Transaction</title>
<path fill="none" stroke="#ad9cfd" d="M176.601,-65.0625C179.448,-58.6325 182.542,-51.6473 185.439,-45.106"/>
<ellipse fill="none" stroke="#ad9cfd" cx="174.966" cy="-68.7536" rx="4.00002" ry="4.00002"/>
<polygon fill="#ad9cfd" stroke="#ad9cfd" points="185.442,-45.0997 193.605,-37.7784 187.466,-40.528 189.491,-35.9562 189.491,-35.9562 189.491,-35.9562 187.466,-40.528 185.376,-34.134 185.442,-45.0997 185.442,-45.0997"/>
</g>
<!-- AdminUser -->
<g id="node9" class="node"><title>AdminUser</title>
<ellipse fill="none" stroke="black" cx="554" cy="-399" rx="51.9908" ry="18"/>
<text text-anchor="middle" x="554" y="-395.3" font-family="Times,serif" font-size="14.00">AdminUser</text>
</g>
<!-- Commune&#45;&gt;User -->
<g id="edge5" class="edge"><title>Commune&#45;&gt;User</title>
<path fill="none" stroke="#1ecf79" d="M255.176,-209.908C249.779,-202.5 243.793,-194.285 238.359,-186.826"/>
<ellipse fill="none" stroke="#1ecf79" cx="257.558" cy="-213.178" rx="4.00002" ry="4.00002"/>
<polygon fill="#1ecf79" stroke="#1ecf79" points="238.189,-186.593 235.938,-175.861 235.245,-182.552 232.301,-178.511 232.301,-178.511 232.301,-178.511 235.245,-182.552 228.664,-181.161 238.189,-186.593 238.189,-186.593"/>
</g>
<!-- Category -->
<g id="node11" class="node"><title>Category</title>
<ellipse fill="none" stroke="black" cx="309" cy="-162" rx="42.7926" ry="18"/>
<text text-anchor="middle" x="309" y="-158.3" font-family="Times,serif" font-size="14.00">Category</text>
</g>
<!-- Product -->
<g id="node14" class="node"><title>Product</title>
<ellipse fill="none" stroke="black" cx="298" cy="-90" rx="38.1938" ry="18"/>
<text text-anchor="middle" x="298" y="-86.3" font-family="Times,serif" font-size="14.00">Product</text>
</g>
<!-- Category&#45;&gt;Product -->
<g id="edge6" class="edge"><title>Category&#45;&gt;Product</title>
<path fill="none" stroke="#c8367a" d="M305.015,-135.64C304.116,-129.92 303.159,-123.828 302.249,-118.042"/>
<ellipse fill="none" stroke="#c8367a" cx="305.66" cy="-139.745" rx="4.00001" ry="4.00001"/>
<polygon fill="#c8367a" stroke="#c8367a" points="302.24,-117.983 305.133,-107.406 301.464,-113.044 300.688,-108.104 300.688,-108.104 300.688,-108.104 301.464,-113.044 296.242,-108.803 302.24,-117.983 302.24,-117.983"/>
</g>
<!-- Comment -->
<g id="node12" class="node"><title>Comment</title>
<ellipse fill="none" stroke="black" cx="393" cy="-18" rx="46.2923" ry="18"/>
<text text-anchor="middle" x="393" y="-14.3" font-family="Times,serif" font-size="14.00">Comment</text>
</g>
<!-- User&#45;&gt;Transaction -->
<g id="edge8" class="edge"><title>User&#45;&gt;Transaction</title>
<path fill="none" stroke="#16be3e" d="M216.763,-135.929C212.503,-110.725 205.957,-71.9942 201.579,-46.0947"/>
<ellipse fill="none" stroke="#16be3e" cx="217.438" cy="-139.927" rx="4.00001" ry="4.00001"/>
<polygon fill="#16be3e" stroke="#16be3e" points="201.572,-46.0494 204.342,-35.4393 200.739,-41.1193 199.905,-36.1893 199.905,-36.1893 199.905,-36.1893 200.739,-41.1193 195.468,-36.9392 201.572,-46.0494 201.572,-46.0494"/>
</g>
<!-- User&#45;&gt;Product -->
<g id="edge7" class="edge"><title>User&#45;&gt;Product</title>
<path fill="none" stroke="#e61849" d="M242.659,-141.31C252.265,-132.577 263.613,-122.261 273.525,-113.25"/>
<ellipse fill="none" stroke="#e61849" cx="239.542" cy="-144.144" rx="4.00002" ry="4.00002"/>
<polygon fill="#e61849" stroke="#e61849" points="273.706,-113.086 284.132,-109.689 277.405,-109.722 281.105,-106.359 281.105,-106.359 281.105,-106.359 277.405,-109.722 278.078,-103.029 273.706,-113.086 273.706,-113.086"/>
</g>
<!-- Product&#45;&gt;Photo -->
<g id="edge9" class="edge"><title>Product&#45;&gt;Photo</title>
<path fill="none" stroke="#f53fe3" d="M298,-63.6398C298,-58.0629 298,-52.1319 298,-46.4761"/>
<ellipse fill="none" stroke="#f53fe3" cx="298" cy="-67.6966" rx="4" ry="4"/>
<polygon fill="#f53fe3" stroke="#f53fe3" points="298,-46.1043 302.5,-36.1043 298,-41.1043 298,-36.1043 298,-36.1043 298,-36.1043 298,-41.1043 293.5,-36.1044 298,-46.1043 298,-46.1043"/>
</g>
<!-- Product&#45;&gt;Transaction -->
<g id="edge10" class="edge"><title>Product&#45;&gt;Transaction</title>
<path fill="none" stroke="#0d04fa" d="M270.453,-69.908C257.271,-60.7721 241.439,-49.7993 227.854,-40.384"/>
<ellipse fill="none" stroke="#0d04fa" cx="273.785" cy="-72.2174" rx="4.00002" ry="4.00002"/>
<polygon fill="#0d04fa" stroke="#0d04fa" points="227.521,-40.153 221.865,-30.758 223.411,-37.3048 219.302,-34.4566 219.302,-34.4566 219.302,-34.4566 223.411,-37.3048 216.738,-38.1551 227.521,-40.153 227.521,-40.153"/>
</g>
<!-- Product&#45;&gt;Comment -->
<g id="edge11" class="edge"><title>Product&#45;&gt;Comment</title>
<path fill="none" stroke="#f005f0" d="M324.364,-69.5741C336.677,-60.501 351.371,-49.6738 363.998,-40.3696"/>
<ellipse fill="none" stroke="#f005f0" cx="320.904" cy="-72.1231" rx="4.00002" ry="4.00002"/>
<polygon fill="#f005f0" stroke="#f005f0" points="364.305,-40.1439 375.025,-37.8346 368.33,-37.1779 372.355,-34.2119 372.355,-34.2119 372.355,-34.2119 368.33,-37.1779 369.686,-30.5891 364.305,-40.1439 364.305,-40.1439"/>
</g>
</g>
</svg>
